Coordinates
version=1
nRows=32
nColumns=12
inDegrees=yes

Units are S.I. units (second, meters, Newtons, ...)
Angles are in degrees

endheader
time	SC_y	SC_z	SC_x	AC_y	AC_z	AC_x	GH_y	GH_z	GH_yy	EL_x	PS_y
       0.0              -14.26          19.89          10.69          65.92         -4.034           11.6         -110.9          14.97         -52.82          53.83          98.07
   0.03814              -14.26          19.89          10.69          65.91         -4.036          11.59         -110.9          14.97         -52.82          53.84          98.06
   0.07627              -14.27          19.89           10.7           65.9         -4.038          11.59         -110.8          14.97         -52.82          53.85          98.05
    0.1144              -14.28          19.89           10.7           65.9         -4.041          11.59         -110.8          14.98         -52.82          53.87          98.03
    0.1525              -14.28          19.89          10.71          65.89         -4.043          11.58         -110.8          14.98         -52.83          53.88          98.02
    0.1907              -14.29          19.89          10.71          65.89         -4.046          11.58         -110.7          14.98         -52.83           53.9           98.0
    0.2288               -14.3          19.89          10.72          65.88         -4.049          11.57         -110.7          14.98         -52.83          53.91          97.99
     0.267              -14.31          19.88          10.72          65.87         -4.052          11.57         -110.6          14.99         -52.84          53.93          97.97
    0.3051              -14.31          19.88          10.73          65.86         -4.055          11.57         -110.6          14.99         -52.84          53.95          97.95
    0.3432              -14.32          19.88          10.73          65.85         -4.059          11.56         -110.5          14.99         -52.84          53.97          97.94
    0.3814              -14.33          19.88          10.74          65.84         -4.063          11.56         -110.5           15.0         -52.85          53.99          97.92
    0.4195              -14.34          19.88          10.75          65.83         -4.067          11.55         -110.4           15.0         -52.85          54.01          97.89
    0.4576              -14.35          19.88          10.76          65.82         -4.071          11.54         -110.4           15.0         -52.86          54.04          97.87
    0.4958              -14.37          19.88          10.77          65.81         -4.076          11.54         -110.3          15.01         -52.86          54.06          97.84
    0.5339              -14.38          19.88          10.78           65.8         -4.081          11.53         -110.2          15.01         -52.87          54.09          97.82
     0.572               -14.4          19.87          10.79          65.79         -4.087          11.52         -110.2          15.02         -52.87          54.13          97.79
    0.6102              -14.41          19.87           10.8          65.77         -4.093          11.51         -110.1          15.02         -52.88          54.16          97.75
    0.6483              -14.43          19.87          10.81          65.75         -4.099           11.5         -110.0          15.03         -52.89           54.2          97.72
    0.6864              -14.45          19.87          10.82          65.74         -4.107          11.49         -109.9          15.04         -52.89          54.24          97.68
    0.7246              -14.47          19.87          10.84          65.72         -4.115          11.48         -109.8          15.04          -52.9          54.28          97.64
    0.7627              -14.49          19.86          10.85          65.69         -4.123          11.47         -109.7          15.05         -52.91          54.33          97.59
    0.8009              -14.52          19.86          10.87          65.67         -4.133          11.46         -109.5          15.06         -52.92          54.39          97.54
     0.839              -14.54          19.86          10.89          65.65         -4.143          11.44         -109.4          15.07         -52.93          54.45          97.48
    0.8771              -14.57          19.85          10.91          65.62         -4.155          11.43         -109.2          15.08         -52.95          54.51          97.42
    0.9153              -14.61          19.85          10.94          65.58         -4.168          11.41         -109.0          15.09         -52.96          54.59          97.35
    0.9534              -14.64          19.84          10.97          65.55         -4.183          11.39         -108.8           15.1         -52.98          54.67          97.27
    0.9915              -14.69          19.84           11.0          65.51         -4.199          11.36         -108.6          15.12         -52.99          54.76          97.18
      1.03              -14.73          19.83          11.03          65.46         -4.217          11.34         -108.4          15.13         -53.01          54.87          97.09
     1.068              -14.79          19.83          11.07          65.41         -4.238          11.31         -108.1          15.15         -53.04          54.98          96.97
     1.106              -14.85          19.82          11.11          65.35         -4.261          11.28         -107.7          15.17         -53.06          55.12          96.85
     1.144              -14.92          19.81          11.16          65.29         -4.288          11.24         -107.4           15.2         -53.09          55.27           96.7
     1.182               -15.0           19.8          11.22          65.21         -4.319           11.2         -106.9          15.22         -53.12          55.44          96.54
